<svg width="20" height="20" viewBox="0 0 20 20" fill="none" xmlns="http://www.w3.org/2000/svg">
<path d="M11.6667 18.3333V15C11.6667 14.558 11.4912 14.1341 11.1786 13.8215C10.866 13.5089 10.4421 13.3333 10.0001 13.3333C9.55805 13.3333 9.13413 13.5089 8.82157 13.8215C8.50901 14.1341 8.33341 14.558 8.33341 15V18.3333M15.0001 8.33335L17.8726 9.77001C18.011 9.83917 18.1274 9.9455 18.2088 10.0771C18.2902 10.2087 18.3333 10.3603 18.3334 10.515V16.6667C18.3334 17.1087 18.1578 17.5326 17.8453 17.8452C17.5327 18.1578 17.1088 18.3333 16.6667 18.3333H3.33341C2.89139 18.3333 2.46746 18.1578 2.1549 17.8452C1.84234 17.5326 1.66675 17.1087 1.66675 16.6667V10.515C1.66683 10.3603 1.70998 10.2087 1.79137 10.0771C1.87277 9.9455 1.98918 9.83917 2.12758 9.77001L5.00008 8.33335M15.0001 4.16668V18.3333M3.33341 5.00001L9.25508 2.03918C9.48641 1.92358 9.74147 1.8634 10.0001 1.8634C10.2587 1.8634 10.5137 1.92358 10.7451 2.03918L16.6667 5.00001M5.00008 4.16668V18.3333M11.6667 7.50001C11.6667 8.42049 10.9206 9.16668 10.0001 9.16668C9.07961 9.16668 8.33341 8.42049 8.33341 7.50001C8.33341 6.57954 9.07961 5.83335 10.0001 5.83335C10.9206 5.83335 11.6667 6.57954 11.6667 7.50001Z" stroke="#CFCFCF" stroke-width="1.66667" stroke-linecap="round" stroke-linejoin="round"/>
</svg>
