<svg width="20" height="20" viewBox="0 0 20 20" fill="none" xmlns="http://www.w3.org/2000/svg">
<g clip-path="url(#clip0_43_300)">
<path d="M11.2501 5.83329C11.4802 5.83329 11.6667 5.64674 11.6667 5.41663C11.6667 5.18651 11.4802 4.99996 11.2501 4.99996C11.02 4.99996 10.8334 5.18651 10.8334 5.41663C10.8334 5.64674 11.02 5.83329 11.2501 5.83329Z" fill="black"/>
<path d="M14.5834 9.16663C14.8135 9.16663 15.0001 8.98008 15.0001 8.74996C15.0001 8.51984 14.8135 8.33329 14.5834 8.33329C14.3533 8.33329 14.1667 8.51984 14.1667 8.74996C14.1667 8.98008 14.3533 9.16663 14.5834 9.16663Z" fill="black"/>
<path d="M5.41675 10.8333C5.64687 10.8333 5.83341 10.6467 5.83341 10.4166C5.83341 10.1865 5.64687 9.99996 5.41675 9.99996C5.18663 9.99996 5.00008 10.1865 5.00008 10.4166C5.00008 10.6467 5.18663 10.8333 5.41675 10.8333Z" fill="black"/>
<path d="M7.08341 6.66663C7.31353 6.66663 7.50008 6.48008 7.50008 6.24996C7.50008 6.01984 7.31353 5.83329 7.08341 5.83329C6.8533 5.83329 6.66675 6.01984 6.66675 6.24996C6.66675 6.48008 6.8533 6.66663 7.08341 6.66663Z" fill="black"/>
<path d="M10.0001 18.3333C7.78994 18.3333 5.67033 17.4553 4.10752 15.8925C2.54472 14.3297 1.66675 12.2101 1.66675 9.99996C1.66675 7.78982 2.54472 5.67021 4.10752 4.1074C5.67033 2.5446 7.78994 1.66663 10.0001 1.66663C12.2102 1.66663 14.3298 2.4568 15.8926 3.86332C17.4554 5.26985 18.3334 7.1775 18.3334 9.16663C18.3334 10.2717 17.8944 11.3315 17.113 12.1129C16.3316 12.8943 15.2718 13.3333 14.1667 13.3333H12.2917C12.0209 13.3333 11.7554 13.4087 11.5251 13.5511C11.2947 13.6935 11.1085 13.8972 10.9874 14.1394C10.8663 14.3817 10.815 14.6529 10.8393 14.9226C10.8636 15.1923 10.9626 15.45 11.1251 15.6666L11.3751 16C11.5376 16.2166 11.6365 16.4743 11.6609 16.744C11.6852 17.0137 11.6339 17.2849 11.5128 17.5271C11.3917 17.7694 11.2055 17.9731 10.9751 18.1155C10.7447 18.2579 10.4792 18.3333 10.2084 18.3333H10.0001Z" stroke="#D9D9D9" stroke-width="1.66667" stroke-linecap="round" stroke-linejoin="round"/>
<path d="M11.2501 5.83329C11.4802 5.83329 11.6667 5.64674 11.6667 5.41663C11.6667 5.18651 11.4802 4.99996 11.2501 4.99996C11.02 4.99996 10.8334 5.18651 10.8334 5.41663C10.8334 5.64674 11.02 5.83329 11.2501 5.83329Z" stroke="#D9D9D9" stroke-width="1.66667" stroke-linecap="round" stroke-linejoin="round"/>
<path d="M14.5834 9.16663C14.8135 9.16663 15.0001 8.98008 15.0001 8.74996C15.0001 8.51984 14.8135 8.33329 14.5834 8.33329C14.3533 8.33329 14.1667 8.51984 14.1667 8.74996C14.1667 8.98008 14.3533 9.16663 14.5834 9.16663Z" stroke="#D9D9D9" stroke-width="1.66667" stroke-linecap="round" stroke-linejoin="round"/>
<path d="M5.41675 10.8333C5.64687 10.8333 5.83341 10.6467 5.83341 10.4166C5.83341 10.1865 5.64687 9.99996 5.41675 9.99996C5.18663 9.99996 5.00008 10.1865 5.00008 10.4166C5.00008 10.6467 5.18663 10.8333 5.41675 10.8333Z" stroke="#D9D9D9" stroke-width="1.66667" stroke-linecap="round" stroke-linejoin="round"/>
<path d="M7.08341 6.66663C7.31353 6.66663 7.50008 6.48008 7.50008 6.24996C7.50008 6.01984 7.31353 5.83329 7.08341 5.83329C6.8533 5.83329 6.66675 6.01984 6.66675 6.24996C6.66675 6.48008 6.8533 6.66663 7.08341 6.66663Z" stroke="#D9D9D9" stroke-width="1.66667" stroke-linecap="round" stroke-linejoin="round"/>
</g>
<defs>
<clipPath id="clip0_43_300">
<rect width="20" height="20" fill="white"/>
</clipPath>
</defs>
</svg>
