<svg width="20" height="20" viewBox="0 0 20 20" fill="none" xmlns="http://www.w3.org/2000/svg">
<g clip-path="url(#clip0_62_666)">
<path fill-rule="evenodd" clip-rule="evenodd" d="M4.51609 0H15.4839C17.9677 0 20 2.03227 20 4.51609V15.3917C20 17.8755 17.9677 19.9078 15.4839 19.9078H4.51609C2.03227 19.9078 0 17.8755 0 15.3917V4.51609C0 2.03227 2.03227 0 4.51609 0Z" fill="#CFCFCF"/>
<path d="M17.2225 5.43621C17.0663 5.35961 16.999 5.50558 16.9076 5.57968C16.8763 5.60359 16.8498 5.63464 16.8235 5.66332C16.595 5.9073 16.3281 6.06757 15.9795 6.04843C15.4698 6.01976 15.0345 6.18 14.6498 6.56984C14.568 6.0891 14.2963 5.80195 13.8828 5.61789C13.6664 5.52222 13.4476 5.42648 13.2961 5.21839C13.1903 5.07015 13.1614 4.90507 13.1085 4.74242C13.0749 4.64441 13.0411 4.5439 12.9281 4.52711C12.8055 4.50796 12.7573 4.61078 12.7093 4.69699C12.517 5.04863 12.4424 5.43609 12.4497 5.82832C12.4666 6.71101 12.8392 7.41414 13.5798 7.91414C13.664 7.97156 13.6856 8.02894 13.6592 8.11265C13.6087 8.28492 13.5486 8.4523 13.4957 8.62457C13.462 8.73461 13.4115 8.75851 13.2937 8.7107C12.8873 8.54093 12.5362 8.28968 12.226 7.98597C11.6994 7.47644 11.2234 6.91433 10.6294 6.47418C10.492 6.37252 10.3508 6.27599 10.2062 6.18476C9.60028 5.59636 10.2856 5.11312 10.4443 5.05578C10.6102 4.99593 10.502 4.79027 9.96571 4.79265C9.4295 4.79504 8.93895 4.97441 8.31383 5.21363C8.22243 5.24957 8.12629 5.27586 8.02766 5.2973C7.4602 5.18964 6.8711 5.16574 6.25551 5.23507C5.09649 5.36418 4.17083 5.91199 3.49036 6.84726C2.67286 7.97168 2.48043 9.2489 2.7161 10.5812C2.96375 11.9853 3.68028 13.1478 4.78157 14.0568C5.92372 14.9991 7.23903 15.4608 8.73938 15.3723C9.65067 15.3197 10.6654 15.1978 11.81 14.2289C12.0985 14.3724 12.4015 14.4299 12.904 14.4729C13.2912 14.5089 13.6639 14.4538 13.9524 14.3941C14.4045 14.2984 14.3732 13.8798 14.2097 13.8033C12.8849 13.1862 13.1757 13.4373 12.9113 13.234C13.5845 12.4375 14.5993 11.6099 14.996 8.92847C15.0272 8.71566 15.0007 8.58171 14.996 8.40945C14.9936 8.30429 15.0176 8.26359 15.1379 8.2516C15.4697 8.21328 15.7918 8.1225 16.0876 7.95976C16.946 7.49093 17.2923 6.72074 17.3741 5.79746C17.3861 5.65636 17.3717 5.51043 17.2225 5.43632V5.43621ZM9.74215 13.7457C8.45809 12.7364 7.83536 12.4038 7.57809 12.4182C7.33766 12.4326 7.3809 12.7077 7.43379 12.887C7.48907 13.0641 7.56129 13.186 7.66223 13.3415C7.73196 13.4444 7.78008 13.5974 7.59254 13.7123C7.17899 13.9682 6.46001 13.6262 6.42629 13.6094C5.58954 13.1166 4.88981 12.4661 4.39684 11.5763C3.92079 10.7199 3.64422 9.80148 3.5986 8.82074C3.58657 8.58398 3.65633 8.50015 3.89192 8.45718C4.20208 8.39972 4.52188 8.38773 4.83208 8.43316C6.14251 8.62457 7.25817 9.21058 8.19356 10.1386C8.72739 10.6672 9.13133 11.2987 9.54739 11.9158C9.98981 12.5712 10.4659 13.1955 11.0718 13.7074C11.2859 13.8868 11.4565 14.0232 11.6201 14.1237C11.1271 14.1786 10.3047 14.1906 9.74215 13.7457ZM10.3632 9.74105C10.3836 9.65859 10.4578 9.59816 10.5477 9.59816C10.5698 9.59822 10.5918 9.60225 10.6125 9.61007C10.639 9.61968 10.6631 9.63406 10.6823 9.6555C10.7159 9.68906 10.7352 9.73687 10.7352 9.78707C10.7352 9.89234 10.6511 9.97601 10.5453 9.97601C10.5006 9.97643 10.4573 9.96072 10.4233 9.93177C10.3893 9.90282 10.3669 9.86258 10.3602 9.81843C10.356 9.7927 10.3571 9.76639 10.3632 9.74105ZM12.2073 10.7924C12.1055 10.8313 12.0041 10.8619 11.9062 10.8659C11.7234 10.8754 11.5239 10.8012 11.4157 10.7103C11.2475 10.5693 11.1272 10.4904 11.0767 10.2439C11.0551 10.1386 11.0671 9.97601 11.0863 9.88273C11.1296 9.68179 11.0815 9.55261 10.9397 9.43543C10.8243 9.33976 10.6775 9.31347 10.5165 9.31347C10.4564 9.31347 10.4011 9.28718 10.3602 9.26566C10.2929 9.23222 10.2376 9.14847 10.2905 9.04558C10.3073 9.01214 10.3891 8.93078 10.4084 8.91648C10.6271 8.79207 10.8797 8.83273 11.1128 8.92601C11.3292 9.01453 11.4928 9.17714 11.7284 9.40675C11.9688 9.68418 12.0121 9.76078 12.1492 9.96886C12.2575 10.1315 12.356 10.299 12.4234 10.4903C12.4576 10.5903 12.4261 10.6754 12.3319 10.7355C12.2936 10.7599 12.2495 10.7762 12.2073 10.7924Z" fill="#0E0E0E"/>
</g>
<defs>
<clipPath id="clip0_62_666">
<rect width="20" height="19.9078" fill="white"/>
</clipPath>
</defs>
</svg>
