<svg width="20" height="20" viewBox="0 0 20 20" fill="none" xmlns="http://www.w3.org/2000/svg">
<path d="M9.9999 16.6667H17.4999M13.6466 3.01836C13.9783 2.68661 14.4282 2.50024 14.8974 2.50024C15.3666 2.50024 15.8165 2.68661 16.1482 3.01836C16.48 3.3501 16.6663 3.80004 16.6663 4.26919C16.6663 4.73834 16.48 5.18828 16.1482 5.52002L6.1399 15.5292C5.94165 15.7274 5.69659 15.8725 5.4274 15.9509L3.03407 16.6492C2.96236 16.6701 2.88635 16.6714 2.81399 16.6528C2.74163 16.6343 2.67559 16.5966 2.62277 16.5438C2.56995 16.491 2.53231 16.425 2.51377 16.3526C2.49523 16.2802 2.49648 16.2042 2.5174 16.1325L3.21573 13.7392C3.29425 13.4703 3.43927 13.2255 3.6374 13.0275L13.6466 3.01836Z" stroke="#CFCFCF" stroke-width="1.66667" stroke-linecap="round" stroke-linejoin="round"/>
</svg>
