<svg width="20" height="20" viewBox="0 0 20 20" fill="none" xmlns="http://www.w3.org/2000/svg">
<path d="M10.0002 10.8333C12.3013 10.8333 14.1668 8.96785 14.1668 6.66667C14.1668 4.36548 12.3013 2.5 10.0002 2.5C7.69898 2.5 5.8335 4.36548 5.8335 6.66667C5.8335 8.96785 7.69898 10.8333 10.0002 10.8333Z" fill="#D9D9D9"/>
<path d="M16.6668 17.5C16.6668 15.7319 15.9645 14.0362 14.7142 12.786C13.464 11.5357 11.7683 10.8333 10.0002 10.8333C8.23205 10.8333 6.53636 11.5357 5.28612 12.786C4.03588 14.0362 3.3335 15.7319 3.3335 17.5" fill="#D9D9D9"/>
<path d="M10.0002 10.8333C12.3013 10.8333 14.1668 8.96785 14.1668 6.66667C14.1668 4.36548 12.3013 2.5 10.0002 2.5C7.69898 2.5 5.8335 4.36548 5.8335 6.66667C5.8335 8.96785 7.69898 10.8333 10.0002 10.8333ZM10.0002 10.8333C11.7683 10.8333 13.464 11.5357 14.7142 12.786C15.9645 14.0362 16.6668 15.7319 16.6668 17.5H3.3335C3.3335 15.7319 4.03588 14.0362 5.28612 12.786C6.53636 11.5357 8.23205 10.8333 10.0002 10.8333Z" stroke="#D9D9D9" stroke-linecap="round" stroke-linejoin="round"/>
</svg>
