<svg width="20" height="20" viewBox="0 0 20 20" fill="none" xmlns="http://www.w3.org/2000/svg">
<path d="M15 4.16656V18.3332Z" fill="#CFCFCF"/>
<path d="M3.33329 4.99989L9.25496 2.03906C9.48629 1.92346 9.74135 1.86328 9.99996 1.86328C10.2586 1.86328 10.5136 1.92346 10.745 2.03906L16.6666 4.99989" fill="#CFCFCF"/>
<path d="M4.99996 4.16656V18.3332Z" fill="#CFCFCF"/>
<path fill-rule="evenodd" clip-rule="evenodd" d="M11.6666 14.9999V18.3332L15 18.3332V8.33322V4.16656L10.745 2.03906C10.5136 1.92346 10.2586 1.86328 9.99996 1.86328C9.74135 1.86328 9.48629 1.92346 9.25496 2.03906L4.99996 4.16656L4.99996 8.33322L4.99996 18.3332L8.33329 18.3332V14.9999C8.33329 14.5579 8.50889 14.1339 8.82145 13.8214C9.13401 13.5088 9.55793 13.3332 9.99996 13.3332C10.442 13.3332 10.8659 13.5088 11.1785 13.8214C11.491 14.1339 11.6666 14.5579 11.6666 14.9999ZM9.99996 9.16656C10.9204 9.16656 11.6666 8.42037 11.6666 7.49989C11.6666 6.57942 10.9204 5.83322 9.99996 5.83322C9.07948 5.83322 8.33329 6.57942 8.33329 7.49989C8.33329 8.42037 9.07948 9.16656 9.99996 9.16656Z" fill="#CFCFCF"/>
<path d="M3.33329 18.3332L4.99996 18.3332L4.99996 8.33322L2.12746 9.76989C1.98906 9.83905 1.87264 9.94537 1.79125 10.077C1.70986 10.2085 1.66671 10.3602 1.66663 10.5149V16.6666C1.66663 17.1086 1.84222 17.5325 2.15478 17.8451C2.46734 18.1576 2.89127 18.3332 3.33329 18.3332Z" fill="#CFCFCF"/>
<path d="M17.8725 9.76989L15 8.33322V18.3332L16.6666 18.3332C17.1087 18.3332 17.5326 18.1576 17.8451 17.8451C18.1577 17.5325 18.3333 17.1086 18.3333 16.6666V10.5149C18.3332 10.3602 18.2901 10.2085 18.2087 10.077C18.1273 9.94537 18.0109 9.83905 17.8725 9.76989Z" fill="#CFCFCF"/>
<path d="M11.6666 18.3332V14.9999C11.6666 14.5579 11.491 14.1339 11.1785 13.8214C10.8659 13.5088 10.442 13.3332 9.99996 13.3332C9.55793 13.3332 9.13401 13.5088 8.82145 13.8214C8.50889 14.1339 8.33329 14.5579 8.33329 14.9999V18.3332M11.6666 18.3332L15 18.3332M11.6666 18.3332H16.6666M8.33329 18.3332L4.99996 18.3332M8.33329 18.3332H3.33329M15 8.33322L17.8725 9.76989C18.0109 9.83905 18.1273 9.94537 18.2087 10.077C18.2901 10.2085 18.3332 10.3602 18.3333 10.5149V16.6666C18.3333 17.1086 18.1577 17.5325 17.8451 17.8451C17.5326 18.1576 17.1087 18.3332 16.6666 18.3332M15 8.33322V18.3332M15 8.33322V4.16656M16.6666 18.3332H3.33329M16.6666 18.3332L15 18.3332M3.33329 18.3332C2.89127 18.3332 2.46734 18.1576 2.15478 17.8451C1.84222 17.5325 1.66663 17.1086 1.66663 16.6666V10.5149C1.66671 10.3602 1.70986 10.2085 1.79125 10.077C1.87264 9.94537 1.98906 9.83905 2.12746 9.76989L4.99996 8.33322M3.33329 18.3332L4.99996 18.3332M4.99996 8.33322L4.99996 4.16656M4.99996 8.33322L4.99996 18.3332M15 4.16656V18.3332M15 4.16656L10.745 2.03906M3.33329 4.99989L9.25496 2.03906M9.25496 2.03906C9.48629 1.92346 9.74135 1.86328 9.99996 1.86328C10.2586 1.86328 10.5136 1.92346 10.745 2.03906M9.25496 2.03906L4.99996 4.16656M10.745 2.03906L16.6666 4.99989M4.99996 4.16656V18.3332M11.6666 7.49989C11.6666 8.42037 10.9204 9.16656 9.99996 9.16656C9.07948 9.16656 8.33329 8.42037 8.33329 7.49989C8.33329 6.57942 9.07948 5.83322 9.99996 5.83322C10.9204 5.83322 11.6666 6.57942 11.6666 7.49989Z" stroke="#CFCFCF" stroke-width="0.5" stroke-linecap="round" stroke-linejoin="round"/>
</svg>
