<svg width="20" height="20" viewBox="0 0 20 20" fill="none" xmlns="http://www.w3.org/2000/svg">
<path d="M7.33317 16.6667V13.25L8.9165 13.4167C9.37745 13.3911 9.81367 13.2 10.145 12.8784C10.4763 12.5569 10.6804 12.1267 10.7198 11.6667V6.91669C10.7254 5.71614 10.2537 4.56257 9.40874 3.70975C8.56373 2.85693 7.41455 2.37471 6.214 2.36919C5.01346 2.36366 3.85989 2.83528 3.00707 3.68029C2.15424 4.5253 1.67203 5.67448 1.6665 6.87502C1.6665 9.20836 2.21317 9.42002 2.49984 10.6667C2.69357 11.4196 2.70187 12.2082 2.524 12.965L1.6665 16.6667M16.4998 14.8334C17.6714 13.6617 18.3297 12.0728 18.3302 10.416C18.3306 8.75909 17.6732 7.16983 16.5023 5.99752M14.1665 12.5C14.4391 12.2274 14.655 11.9035 14.8017 11.5469C14.9484 11.1904 15.0229 10.8083 15.021 10.4228C15.019 10.0372 14.9407 9.6559 14.7904 9.30084C14.6402 8.94578 14.421 8.62402 14.1457 8.35419" stroke="#D9D9D9" stroke-width="1.66667" stroke-linecap="round" stroke-linejoin="round"/>
</svg>
