<svg width="16" height="16" viewBox="0 0 16 16" fill="none" xmlns="http://www.w3.org/2000/svg">
<path d="M14 7.33333V3.33333C14 2.97971 13.8595 2.64057 13.6095 2.39052C13.3594 2.14048 13.0203 2 12.6667 2H3.33333C2.97971 2 2.64057 2.14048 2.39052 2.39052C2.14048 2.64057 2 2.97971 2 3.33333V12.6667C2 13.0203 2.14048 13.3594 2.39052 13.6095C2.64057 13.8595 2.97971 14 3.33333 14H7.33333M8.02267 8.454C7.99863 8.39371 7.9928 8.32769 8.00589 8.26412C8.01898 8.20055 8.05041 8.14221 8.09631 8.09631C8.14221 8.05041 8.20055 8.01898 8.26412 8.00589C8.32769 7.9928 8.39371 7.99863 8.454 8.02267L14.454 10.356C14.5183 10.3811 14.5733 10.4256 14.6112 10.4833C14.6491 10.541 14.6682 10.6091 14.6658 10.6781C14.6634 10.7472 14.6396 10.8137 14.5977 10.8686C14.5558 10.9235 14.4979 10.9641 14.432 10.9847L12.136 11.6967C12.0324 11.7287 11.9382 11.7855 11.8615 11.8622C11.7848 11.9389 11.728 12.0331 11.696 12.1367L10.9847 14.432C10.9641 14.4979 10.9235 14.5558 10.8686 14.5977C10.8137 14.6396 10.7472 14.6634 10.6781 14.6658C10.6091 14.6682 10.541 14.6491 10.4833 14.6112C10.4256 14.5733 10.3811 14.5183 10.356 14.454L8.02267 8.454Z" stroke="#CFCFCF" stroke-width="1.33333" stroke-linecap="round" stroke-linejoin="round"/>
</svg>
